<?xml version="1.0" standalone="no"?>
<!DOCTYPE svg PUBLIC "-//W3C//DTD SVG 20010904//EN"
 "http://www.w3.org/TR/2001/REC-SVG-20010904/DTD/svg10.dtd">
<svg version="1.0" xmlns="http://www.w3.org/2000/svg"
 width="1280.000000pt" height="1036.000000pt" viewBox="0 0 1280.000000 1036.000000"
 preserveAspectRatio="xMidYMid meet">
<metadata>
Created by potrace 1.15, written by Peter Selinger 2001-2017
</metadata>
<g transform="translate(0.000000,1036.000000) scale(0.100000,-0.100000)"
fill="#000000" stroke="none">
<path d="M3310 10337 c-40 -14 -645 -357 -1590 -902 -1174 -678 -1537 -892
-1580 -932 -126 -116 -171 -299 -113 -464 11 -30 256 -464 544 -964 458 -795
532 -916 584 -969 123 -126 292 -166 455 -108 31 10 365 197 743 416 377 218
689 396 692 396 2 0 6 -1450 7 -3222 l3 -3223 21 -58 c42 -112 123 -206 221
-256 108 -54 -84 -51 3089 -51 1939 0 2950 3 2985 10 117 22 239 110 299 215
64 112 60 -138 60 3389 0 2841 2 3207 15 3202 8 -3 324 -184 702 -402 379
-219 713 -406 743 -417 163 -57 332 -17 455 109 52 53 126 174 584 969 288
500 533 934 544 964 58 165 13 348 -113 464 -43 40 -405 253 -1570 926 -833
481 -1542 886 -1575 900 l-60 26 -964 0 -965 0 -20 -62 c-24 -73 -50 -96 -162
-143 -221 -92 -546 -140 -944 -140 -398 0 -723 48 -944 140 -112 47 -138 70
-162 143 l-20 62 -950 2 -949 3 -65 -23z"/>
</g>
</svg>
