<svg xmlns="http://www.w3.org/2000/svg" width="18.32" height="12.5" viewBox="0 0 18.32 12.5">
  <g id="Icon_View" data-name="Icon/View" transform="translate(0 -0.25)">
    <path id="View" d="M9.18,12.5a9.6,9.6,0,0,1-5.586-1.739A9.789,9.789,0,0,1,0,6.25,9.8,9.8,0,0,1,3.594,1.738,9.61,9.61,0,0,1,9.18,0a9.522,9.522,0,0,1,5.566,1.738A9.837,9.837,0,0,1,18.32,6.25a9.828,9.828,0,0,1-3.574,4.512A9.513,9.513,0,0,1,9.18,12.5Zm0-10.43A4.038,4.038,0,0,0,6.231,3.3,4.036,4.036,0,0,0,5,6.25,4.037,4.037,0,0,0,6.231,9.2,4.038,4.038,0,0,0,9.18,10.43,3.975,3.975,0,0,0,12.109,9.2,4.072,4.072,0,0,0,13.32,6.25,4.071,4.071,0,0,0,12.109,3.3,3.975,3.975,0,0,0,9.18,2.07ZM9.16,8.75A2.4,2.4,0,0,1,7.4,8.027,2.426,2.426,0,0,1,6.68,6.25,2.425,2.425,0,0,1,7.4,4.473,2.4,2.4,0,0,1,9.16,3.75a2.467,2.467,0,0,1,1.778.723,2.391,2.391,0,0,1,.742,1.777,2.392,2.392,0,0,1-.742,1.777A2.467,2.467,0,0,1,9.16,8.75Z" transform="translate(0 0.25)" fill="#c6cbd4"/>
  </g>
</svg>
